# xmcd
#
# Track frame offsets:
#	150
#	26577
#	42502
#	59822
#	77455
#	93760
#	113895
#	161155
#	180765
#	216135
#	239235
#
# Disc length: 3509 seconds
#
# Revision: 1
# Processed by: cddbd v1.4PL0 Copyright (c) Steve Scherf et al.
# Submitted via: audiograbber 1.80.04
#
DISCID=910db30b
DTITLE=Irek Dudek - A New Vision Of Blues ..
DYEAR=1984
DGENRE=Blues
TTITLE0=Everyday I Have The Blues
TTITLE1=Tell Me Pretty Baby
TTITLE2=Ain't No Need Her
TTITLE3=La Devio By Umrezec Za Mako By Zyc
TTITLE4=Od Nowa
TTITLE5=From Alojz To Alex
TTITLE6=Blues In A
TTITLE7=Kamerany Blues
TTITLE8=Straight Blues
TTITLE9=Przebierka
TTITLE10=Gloria
EXTD=
EXTT0=
EXTT1=
EXTT2=
EXTT3=
EXTT4=
EXTT5=
EXTT6=
EXTT7=
EXTT8=
EXTT9=
EXTT10=
PLAYORDER=
